<svg width="1200" height="820" viewBox="0 0 1200 820" fill="none" xmlns="http://www.w3.org/2000/svg">
  <rect width="1200" height="820" fill="#F59E0B"/>
  <path d="M0 0H1200V820H0V0Z" fill="url(#sky)"/>
  <circle cx="850" cy="315" r="105" fill="#FFF7BC"/>
  <circle cx="850" cy="315" r="145" fill="#FDBA74" fill-opacity=".18"/>
  <path d="M0 476C155 432 275 424 455 456C636 489 798 468 952 430C1074 400 1149 398 1200 404V820H0V476Z" fill="#8B3A16" fill-opacity=".45"/>
  <path d="M0 534C144 493 269 489 456 520C634 550 768 538 938 496C1058 467 1144 463 1200 470V820H0V534Z" fill="#3B241C" fill-opacity=".62"/>
  <path d="M0 627C158 583 316 595 494 628C672 662 854 621 1008 590C1109 570 1174 572 1200 579V820H0V627Z" fill="#211827"/>
  <path d="M822 300C778 278 745 266 713 261C680 256 642 263 612 279C593 289 575 304 560 323C557 327 558 333 562 336C566 339 572 338 575 334C587 319 602 307 619 298C647 283 678 278 709 284C737 289 766 300 806 320C811 322 816 321 819 316C822 311 821 304 816 301L822 300Z" fill="#271D1D"/>
  <path d="M671 282C676 228 668 190 645 165C626 145 600 139 568 147C533 155 506 174 488 205C476 225 469 248 466 275C465 281 469 286 475 287C480 288 485 284 486 278C489 254 495 234 506 216C520 192 542 177 573 170C597 165 616 169 630 184C649 204 655 237 651 279C650 285 654 290 660 291C665 292 670 288 671 282Z" fill="#2F2320"/>
  <path d="M539 170C515 140 480 124 437 119C398 114 362 122 330 141C325 144 324 150 327 155C330 160 336 161 341 158C369 141 400 135 435 139C472 144 501 157 523 184C526 188 533 189 537 185C541 182 542 175 539 170Z" fill="#2F2320"/>
  <path d="M537 313C512 288 480 275 441 276C395 276 360 291 335 320C332 324 332 331 336 334C341 338 347 337 351 333C372 309 402 297 442 297C475 296 501 307 522 327C526 331 532 331 536 327C540 323 541 317 537 313Z" fill="#251B1B"/>
  <path d="M650 289C648 389 648 492 653 598C653 611 676 611 676 598C671 493 671 389 673 290C674 277 651 276 650 289Z" fill="#2B1E1C"/>
  <path d="M675 361C702 325 730 304 761 297C793 289 830 296 873 320C878 323 884 322 887 317C890 312 889 306 884 303C836 276 794 268 756 277C720 286 688 309 657 349C653 354 654 360 659 364C664 367 671 366 675 361Z" fill="#2B1E1C"/>
  <path d="M667 386C636 352 601 335 562 334C522 333 484 349 449 381C445 385 445 392 449 396C453 400 459 400 464 396C494 368 527 354 561 355C594 356 624 371 652 400C656 404 663 404 667 400C671 396 671 390 667 386Z" fill="#2B1E1C"/>
  <path d="M654 486C612 457 568 445 520 449C472 452 427 471 385 506C381 510 380 516 384 521C388 525 395 525 399 521C437 489 478 472 522 469C565 466 604 477 641 503C646 506 652 505 655 500C658 495 658 489 654 486Z" fill="#251B1B"/>
  <path d="M381 612C381 558 415 518 464 518C512 518 547 559 547 612H381Z" fill="#1F2937"/>
  <path d="M333 612C333 563 365 527 411 527C456 527 489 563 489 612H333Z" fill="#111827"/>
  <circle cx="379" cy="604" r="52" fill="#111827"/>
  <circle cx="379" cy="604" r="24" fill="#374151"/>
  <circle cx="512" cy="604" r="44" fill="#111827"/>
  <circle cx="512" cy="604" r="20" fill="#374151"/>
  <path d="M297 615C322 558 371 528 447 524C492 522 537 531 580 552C595 559 603 575 598 591C594 606 579 616 563 616H297Z" fill="#263241"/>
  <path d="M418 520C394 475 359 456 314 462C267 468 232 498 207 552C198 572 212 595 234 595H320C347 595 370 579 381 554L395 523L418 520Z" fill="#374151"/>
  <path d="M244 546C261 510 286 491 321 486C353 482 377 495 394 525L383 550C374 570 356 582 334 582H236C227 582 222 573 226 565C232 557 238 551 244 546Z" fill="#4B5563"/>
  <path d="M404 535C451 532 496 540 536 560C545 564 550 574 547 584H397L404 535Z" fill="#4B5563"/>
  <path d="M211 615H608" stroke="#14B8A6" stroke-width="5" stroke-linecap="round" stroke-dasharray="18 20"/>
  <path d="M971 604C969 548 1000 509 1048 503C1097 497 1139 532 1145 590L971 604Z" fill="#111827"/>
  <path d="M938 610C942 555 912 523 867 523C820 523 790 560 790 614L938 610Z" fill="#1F2937"/>
  <path d="M800 609C827 548 881 518 956 524C1027 530 1082 561 1122 616H800Z" fill="#263241"/>
  <circle cx="872" cy="611" r="46" fill="#111827"/>
  <circle cx="872" cy="611" r="20" fill="#374151"/>
  <circle cx="1052" cy="611" r="46" fill="#111827"/>
  <circle cx="1052" cy="611" r="20" fill="#374151"/>
  <path d="M874 535L917 470H1012L1074 536H874Z" fill="#374151"/>
  <path d="M929 486H1005L1048 532H900L929 486Z" fill="#E0F2FE" fill-opacity=".62"/>
  <defs>
    <linearGradient id="sky" x1="0" y1="0" x2="1200" y2="820" gradientUnits="userSpaceOnUse">
      <stop stop-color="#F97316"/>
      <stop offset=".34" stop-color="#F59E0B"/>
      <stop offset=".62" stop-color="#0F766E"/>
      <stop offset="1" stop-color="#0F172A"/>
    </linearGradient>
  </defs>
</svg>
